<?xml version="1.0" encoding="UTF-8" standalone="no"?>
<!DOCTYPE svg PUBLIC "-//W3C//DTD SVG 1.1//EN" "http://www.w3.org/Graphics/SVG/1.1/DTD/svg11.dtd">
<svg width="100%" height="100%" viewBox="0 0 1024 1024" version="1.1" xmlns="http://www.w3.org/2000/svg" xmlns:xlink="http://www.w3.org/1999/xlink" xml:space="preserve" xmlns:serif="http://www.serif.com/" style="fill-rule:evenodd;clip-rule:evenodd;stroke-linecap:round;stroke-linejoin:round;">
    <rect id="Logo" x="0" y="0" width="1024" height="1024" style="fill:none;"/>
    <g id="Logo1" serif:id="Logo">
        <g id="Face" transform="matrix(1.196739,0,0,1.180701,-132.688344,-85.249226)">
            <ellipse cx="538.017" cy="607.603" rx="389.244" ry="278.762" style="fill:rgb(255,154,36);"/>
        </g>
        <g id="Face-Eyes-Mouth-Nose" serif:id="Face Eyes Mouth Nose" transform="matrix(1.11422,0,0,1.086129,-59.938166,13.375536)">
            <g transform="matrix(-1,0,0,-1,1038.247178,1233.709019)">
                <path d="M524.033,555.8L561.608,598.416L486.458,598.416L524.033,555.8Z" style="fill:rgb(89,59,40);stroke:rgb(89,59,40);stroke-width:15.91px;"/>
            </g>
            <g transform="matrix(-0.002599,1.368331,-1.042573,-0.00198,1017.467068,118.547052)">
                <path d="M332.421,593.625C314.234,598.291 299.467,621.776 299.467,649.622C299.467,677.468 314.234,700.953 332.421,705.619C308.171,705.619 288.483,680.528 288.483,649.622C288.483,618.716 308.171,593.625 332.421,593.625Z" style="fill:rgb(89,59,40);stroke:rgb(89,59,40);stroke-width:12.49px;stroke-miterlimit:1.5;"/>
            </g>
            <g transform="matrix(-0.002599,1.368331,-1.042573,-0.00198,1367.246483,118.547052)">
                <path d="M332.421,593.625C314.234,598.291 299.467,621.776 299.467,649.622C299.467,677.468 314.234,700.953 332.421,705.619C308.171,705.619 288.483,680.528 288.483,649.622C288.483,618.716 308.171,593.625 332.421,593.625Z" style="fill:rgb(89,59,40);stroke:rgb(89,59,40);stroke-width:12.49px;stroke-miterlimit:1.5;"/>
            </g>
            <g transform="matrix(-0.000569,-0.994239,0.885895,-0.000507,-110.701186,1015.842015)">
                <path d="M332.421,593.625C314.234,598.291 299.467,621.776 299.467,649.622C299.467,677.468 314.234,700.953 332.421,705.619C308.171,705.619 288.483,680.528 288.483,649.622C288.483,618.716 308.171,593.625 332.421,593.625Z" style="fill:rgb(89,59,40);stroke:rgb(89,59,40);stroke-width:16.11px;stroke-miterlimit:1.5;"/>
            </g>
            <g transform="matrix(-0.000569,-0.994239,0.885895,-0.000507,-11.485734,1015.842015)">
                <path d="M332.421,593.625C314.234,598.291 299.467,621.776 299.467,649.622C299.467,677.468 314.234,700.953 332.421,705.619C308.171,705.619 288.483,680.528 288.483,649.622C288.483,618.716 308.171,593.625 332.421,593.625Z" style="fill:rgb(89,59,40);stroke:rgb(89,59,40);stroke-width:16.11px;stroke-miterlimit:1.5;"/>
            </g>
        </g>
        <g id="Ears" transform="matrix(1.0322,0,0,1.006177,-16.486405,21.263369)">
            <g id="Right" transform="matrix(1.079461,0,0,1.424528,-39.705802,-85.78715)">
                <path d="M679.273,301.713C679.273,301.713 792.815,152.018 884.892,161.621C976.969,171.224 914.831,417.931 900.709,440.527C886.587,463.122 679.273,301.713 679.273,301.713Z" style="fill:rgb(255,154,36);"/>
            </g>
            <g id="Left" transform="matrix(-1.079461,0,0,1.424528,1063.705802,-85.78715)">
                <path d="M679.273,301.713C679.273,301.713 792.815,152.018 884.892,161.621C976.969,171.224 914.831,417.931 900.709,440.527C886.587,463.122 679.273,301.713 679.273,301.713Z" style="fill:rgb(255,154,36);"/>
            </g>
        </g>
        <g id="Coins" transform="matrix(1.0322,0,0,1.006177,-13.615205,21.263369)">
            <g id="Hole" transform="matrix(1.097516,0,0,1.650377,-60.991779,-256.511486)">
                <ellipse cx="517.159" cy="395.428" rx="162.114" ry="20.336" style="fill:rgb(89,59,40);stroke:rgb(89,59,40);stroke-width:19.05px;"/>
            </g>
            <g transform="matrix(1.075998,0,0,1.075998,-41.812503,-26.945608)">
                <g id="Inner-Coin" serif:id="Inner Coin" transform="matrix(0.832984,0,0,0.832984,39.91689,-15.156013)">
                    <circle cx="566.737" cy="368.172" r="126.959" style="fill:rgb(253,214,109);stroke:rgb(253,214,109);stroke-width:29.65px;"/>
                </g>
                <g id="Outer-Coin" serif:id="Outer Coin" transform="matrix(1.048943,0,0,1.026696,-81.06282,-86.47541)">
                    <path d="M566.737,241.214C636.807,241.214 693.696,298.102 693.696,368.172C693.696,438.243 636.807,495.131 566.737,495.131C496.667,495.131 439.778,438.243 439.778,368.172C439.778,298.102 496.667,241.214 566.737,241.214ZM566.737,267.352C622.381,267.352 667.557,312.528 667.557,368.172C667.557,423.816 622.381,468.992 566.737,468.992C511.093,468.992 465.917,423.816 465.917,368.172C465.917,312.528 511.093,267.352 566.737,267.352Z" style="fill:rgb(255,154,36);stroke:rgb(255,154,36);stroke-width:3.66px;"/>
                </g>
            </g>
            <g id="Hole-Front" serif:id="Hole Front" transform="matrix(-2.544265,-0,0,-2.234473,1695.595666,1305.393693)">
                <path d="M513.545,416.531L419.044,416.531C414.256,413.667 411.735,410.419 411.735,407.113C411.735,396.717 436.182,388.276 466.295,388.276C496.407,388.276 520.855,396.717 520.855,407.113C520.855,410.419 518.334,413.667 513.545,416.531Z" style="fill:rgb(89,59,40);"/>
            </g>
            <g id="Sparks" transform="matrix(0.975868,-0.00328,0,1.100921,10.235777,-18.27855)">
                <g transform="matrix(0.999829,0.018481,-0.018481,0.999829,-22.861797,-8.384422)">
                    <path d="M426.742,94.226L455.063,133.098" style="fill:none;stroke:rgb(255,154,36);stroke-width:31.48px;"/>
                </g>
                <g transform="matrix(0.808237,0.588858,-0.588858,0.808237,227.156447,-271.883339)">
                    <path d="M426.742,94.226L455.063,133.098" style="fill:none;stroke:rgb(255,154,36);stroke-width:30.17px;"/>
                </g>
                <g transform="matrix(-0.324604,-0.94585,0.94585,-0.324604,648.363938,567.825647)">
                    <path d="M426.742,94.226L455.063,133.098" style="fill:none;stroke:rgb(255,154,36);stroke-width:30.57px;"/>
                </g>
            </g>
        </g>
        <g id="Paw" transform="matrix(0.995506,0,0,0.970408,2.912758,23.503225)">
            <g id="Hand" transform="matrix(1.238673,0,0,0.689551,-128.790153,102.247665)">
                <path d="M517.359,292.612L547.218,352.329L487.501,352.329L517.359,292.612Z" style="fill:none;stroke:rgb(255,154,36);stroke-width:50.4px;"/>
            </g>
            <g id="Left1" serif:id="Left" transform="matrix(3.559661,-0.990773,0.99742,3.58354,-1524.502863,-111.560134)">
                <ellipse cx="486.165" cy="244.012" rx="5.495" ry="7.086" style="fill:rgb(255,154,36);"/>
            </g>
            <g id="Mid-Left" serif:id="Mid Left" transform="matrix(3.592767,-0.863044,0.868834,3.616868,-1472.366029,-216.629459)">
                <ellipse cx="486.165" cy="244.012" rx="5.495" ry="7.086" style="fill:rgb(255,154,36);"/>
            </g>
            <g id="Mid-Right" serif:id="Mid Right" transform="matrix(3.668671,0.44008,-0.443032,3.693282,-1138.068486,-868.591169)">
                <ellipse cx="486.165" cy="244.012" rx="5.495" ry="7.086" style="fill:rgb(255,154,36);"/>
            </g>
            <g id="Right1" serif:id="Right" transform="matrix(3.509853,1.15488,-1.162627,3.533398,-849.54175,-1142.155369)">
                <ellipse cx="486.165" cy="244.012" rx="5.495" ry="7.086" style="fill:rgb(255,154,36);"/>
            </g>
        </g>
    </g>
</svg>
